<svg version="1.1" id="Layer_1" xmlns="http://www.w3.org/2000/svg" xmlns:xlink="http://www.w3.org/1999/xlink" x="0px" y="0px"
	 width="100%" viewBox="0 0 672 1024" enable-background="new 0 0 672 1024" xml:space="preserve">
<path fill="#000000" opacity="1.000000" stroke="none" 
	d="
M332.979431,725.725708 
	C332.372437,732.299072 331.848877,738.427429 331.330231,744.556213 
	C331.181793,746.309937 331.697510,748.494751 328.843262,748.521423 
	C326.050568,748.547546 325.664825,746.673340 325.717987,744.470093 
	C326.048279,730.777405 328.734100,717.394409 331.029480,703.959290 
	C331.558075,700.865234 332.020020,697.759705 332.475372,694.893921 
	C331.845825,693.881042 331.101379,694.020142 330.540894,694.298584 
	C315.677155,701.682495 300.326782,701.188293 284.768127,697.133728 
	C278.739868,695.562805 272.865753,694.592102 266.732086,697.198425 
	C262.798615,698.869934 258.640259,697.726624 255.502045,694.933594 
	C247.390457,687.714172 237.620041,683.434998 228.042542,678.771118 
	C222.323624,675.986206 216.837921,672.791260 212.337234,668.237122 
	C207.620270,663.464172 204.322906,658.064636 205.558929,650.859253 
	C206.178238,647.248962 203.964096,644.553345 202.084503,641.783936 
	C190.647949,624.932983 182.409790,606.715210 178.170639,586.707764 
	C175.038742,571.926270 177.775375,559.035522 188.990051,548.306152 
	C198.913193,538.812378 210.300278,536.501709 222.969589,541.896240 
	C227.730560,543.923462 232.388901,546.250427 236.442520,549.472229 
	C239.811600,552.149963 242.292542,551.597534 244.913849,548.508789 
	C251.307648,540.974854 258.838440,535.374695 268.854706,533.237549 
	C281.254181,530.591980 292.787018,532.910278 303.586273,538.760376 
	C313.001953,543.861023 316.649414,553.002502 318.318787,563.076172 
	C321.028168,579.425415 317.405426,595.215454 313.926453,610.985596 
	C312.422211,617.804199 310.454529,624.522827 308.608673,631.262634 
	C307.775421,634.304993 308.381592,636.450500 310.943268,638.672241 
	C316.851532,643.796448 322.347748,649.393616 328.073273,654.732239 
	C329.629822,656.183594 331.147247,657.803833 334.188416,658.403992 
	C334.676941,653.313171 335.536072,648.323181 335.568787,643.327759 
	C335.703918,622.695496 336.939362,602.031555 333.749573,581.479980 
	C332.105530,570.887634 329.566345,560.547791 325.068756,550.842346 
	C314.073608,527.115845 312.472717,502.170227 314.377533,476.582794 
	C315.433899,462.392639 317.537628,448.514160 322.638275,435.167816 
	C326.248718,425.720764 332.023346,417.989014 340.328735,412.174713 
	C341.002045,411.703369 342.206085,411.044769 342.146667,410.613159 
	C341.181091,403.598663 347.584564,403.425140 351.032806,400.273590 
	C354.899841,396.739258 358.806519,393.448120 363.438324,391.206940 
	C367.411987,389.284302 368.253448,386.749207 367.684021,382.501831 
	C365.639404,367.251770 366.273590,351.910736 367.364441,336.632294 
	C368.512878,320.547333 370.038910,304.483521 371.722992,288.444427 
	C373.177765,274.589142 371.650696,277.437866 383.577789,277.085571 
	C390.531158,276.880219 390.834991,277.071686 390.259064,283.809052 
	C388.942139,299.215485 387.093323,314.577515 385.854187,329.989227 
	C384.612152,345.436829 384.357788,360.905640 386.481415,376.340759 
	C387.081451,380.701965 388.992828,382.528442 393.420074,381.497803 
	C395.194672,381.084686 397.039368,380.904327 398.863159,380.782776 
	C406.920837,380.245697 407.378357,380.106262 407.568848,372.056030 
	C408.181854,346.153046 412.686707,320.808777 418.037476,295.565063 
	C419.036011,290.854156 419.780609,286.089325 420.639465,281.348907 
	C420.757996,280.694672 420.744019,279.990051 420.989960,279.390167 
	C421.849457,277.293945 432.855377,275.844147 436.997589,277.302307 
	C440.694366,278.603638 438.881622,281.366425 438.479797,283.608795 
	C435.664917,299.317352 432.547546,314.975281 429.975250,330.722656 
	C427.360016,346.732880 427.691345,362.910187 428.199341,379.069794 
	C428.269745,381.309814 429.172028,382.903625 431.018341,384.006226 
	C458.085419,400.170471 470.909546,426.520386 481.257507,454.548828 
	C491.452637,482.163330 496.649475,510.902618 500.513733,539.995605 
	C504.830200,572.493103 505.085663,605.113098 503.943939,637.728027 
	C502.861420,668.652710 500.367157,699.521606 497.481964,730.344604 
	C497.017212,735.309509 497.147461,740.317444 496.404877,745.284180 
	C496.036896,747.745422 495.098297,749.018616 492.592316,748.675598 
	C489.956177,748.314697 490.285797,746.412476 490.503448,744.488586 
	C492.129272,730.118164 493.903534,715.776001 495.019165,701.336670 
	C497.034668,675.250549 498.068512,649.157593 497.974792,623.002502 
	C497.864960,592.343140 496.729126,561.676453 493.389740,531.248352 
	C489.072388,491.909424 478.619720,454.121582 458.516541,419.567139 
	C451.926575,408.239929 443.756927,398.176575 432.731689,390.752625 
	C431.655762,390.028137 430.621002,389.090240 429.158875,389.220886 
	C427.145660,396.203369 427.146881,396.189270 419.303101,395.518341 
	C417.979736,395.405151 416.631927,395.365570 415.310638,395.475433 
	C408.426636,396.047852 408.157196,396.081146 407.848480,389.443604 
	C407.655151,385.287598 405.498138,384.334961 402.086426,384.409058 
	C393.485168,384.595703 385.266083,386.629059 377.374664,389.918060 
	C372.768341,391.837891 368.351349,394.207001 363.792236,396.246765 
	C360.149292,397.876617 359.649780,399.868103 362.073669,403.170715 
	C368.332581,411.698669 376.278046,418.602264 383.571930,426.136841 
	C385.945221,428.588440 389.019775,430.487213 390.471893,434.142242 
	C387.712006,436.214935 384.067169,434.681885 381.230865,436.963745 
	C384.539856,440.556519 389.439911,442.489929 392.259033,446.806427 
	C389.791412,450.966949 386.150665,449.297302 382.664490,448.873779 
	C384.416656,458.325439 386.425201,467.376251 387.726715,476.527618 
	C391.129120,500.451233 390.560669,524.038452 380.287262,546.529236 
	C376.954041,553.826294 373.264801,560.920349 365.041809,566.282593 
	C382.061310,561.393311 387.890350,547.409424 395.519867,534.861572 
	C398.148376,537.314697 397.663910,539.722290 396.771027,541.695557 
	C390.253418,556.099304 379.913239,566.343750 364.253998,570.328735 
	C355.971649,572.436584 348.631226,568.385620 341.068451,566.065002 
	C339.362335,565.541504 337.966095,564.112610 335.677399,564.222412 
	C334.937622,568.590820 336.558563,572.662476 337.221008,576.814941 
	C340.346985,596.410400 342.850464,616.020813 340.420715,635.933716 
	C339.939362,639.878540 340.873718,644.034729 340.146729,647.903992 
	C337.662811,661.124695 343.189331,669.432190 354.401642,676.127380 
	C361.805237,680.548340 368.185028,681.261292 375.340302,677.148193 
	C382.737061,672.896362 389.482361,667.778564 395.579712,661.766846 
	C403.284668,654.169983 410.317963,645.856079 419.037781,639.333313 
	C421.155792,637.748962 423.450470,636.284241 425.872284,635.254639 
	C428.416229,634.173035 431.222656,633.559387 433.447632,635.437805 
	C433.801788,636.814087 433.197632,637.349976 432.634796,637.511230 
	C424.203522,639.926086 418.579407,646.134644 412.729919,652.071472 
	C404.426178,660.499146 396.150085,668.966003 386.677094,676.125000 
	C372.545776,686.804443 362.588898,686.954590 347.920471,676.871826 
	C335.493866,668.330017 324.986298,657.589355 313.968445,647.429382 
	C311.520020,645.171570 309.060730,642.910583 306.457031,640.838806 
	C297.260223,633.520935 281.962402,634.965088 274.199402,643.851074 
	C272.776215,645.480164 271.577362,647.286987 271.715637,649.713684 
	C273.789917,651.752380 276.474579,651.252319 278.794983,650.957458 
	C290.950226,649.412842 300.652161,654.277893 308.980438,662.422058 
	C321.741730,674.901245 335.696259,686.028137 348.841217,698.065308 
	C355.407043,704.077820 362.984375,705.067566 371.201691,703.049744 
	C384.468079,699.792053 395.281952,691.884033 406.174164,684.193604 
	C412.706940,679.581116 419.090912,674.758362 425.588684,670.095581 
	C428.006409,668.360535 430.546051,666.787537 433.641235,665.936279 
	C434.803864,668.367493 433.103241,669.663940 431.901245,670.707336 
	C413.763336,686.451965 393.999603,699.559753 370.999603,707.135620 
	C361.929077,710.123352 353.607513,708.266846 346.256073,702.030212 
	C343.872772,700.008423 341.608063,697.716553 337.849792,696.486572 
	C335.144989,705.990234 334.244751,715.662048 332.979431,725.725708 
M382.733521,475.577026 
	C381.740112,467.637238 379.966614,459.860077 377.590332,452.233978 
	C376.334045,448.202179 374.270844,444.577118 370.621490,442.150940 
	C361.717651,436.231445 354.905548,428.386383 349.232208,419.405640 
	C346.110687,414.464355 343.913666,414.624817 340.191589,419.672974 
	C340.760803,421.043030 342.041229,421.622131 343.261353,422.039886 
	C348.635834,423.879913 350.733490,428.293701 351.045715,433.243195 
	C352.118378,450.247070 348.719147,466.404175 339.896576,481.072601 
	C335.677704,488.086945 328.616272,489.056152 321.800110,484.495514 
	C321.018311,483.972443 320.499573,482.891113 319.033691,483.202179 
	C319.156982,494.440643 318.649292,505.823273 320.475067,516.917603 
	C322.864166,531.435181 327.294891,545.431152 337.151520,556.982056 
	C345.430664,566.684326 356.719269,567.216492 365.937500,558.322632 
	C370.558105,553.864685 373.906586,548.493408 376.356232,542.602722 
	C385.246552,521.224121 386.322174,499.059967 382.733521,475.577026 
M294.700226,694.726074 
	C306.732269,696.662170 318.334534,696.108093 329.756958,689.055847 
	C325.834412,685.481812 322.545380,682.483765 319.254791,679.487427 
	C317.743225,678.111023 315.912567,677.904663 314.104919,678.481140 
	C306.461731,680.918762 298.664001,680.479248 290.855164,679.870544 
	C289.120026,679.735229 287.509399,679.719421 286.389984,681.326782 
	C284.324127,684.293274 282.266174,687.265259 279.967957,690.576294 
	C284.272186,693.945496 289.370148,693.289246 294.700226,694.726074 
M307.400696,617.968445 
	C310.549957,605.728821 313.513580,593.457397 314.288116,580.775085 
	C315.032440,568.587402 314.139679,556.770996 306.301514,546.627014 
	C302.622314,541.865540 298.895294,539.721375 294.085724,539.306763 
	C306.825592,551.702271 311.023956,566.944153 310.331116,584.010498 
	C309.744812,598.452637 305.914734,612.189819 301.821136,625.902588 
	C301.307678,627.622620 299.661560,629.408691 301.310028,631.403564 
	C304.127136,630.074036 304.127136,630.074036 307.400696,617.968445 
M226.539062,645.363342 
	C222.679672,645.520081 218.957306,646.347473 215.536484,648.123718 
	C211.329681,650.307983 210.236542,653.888855 212.242447,658.154846 
	C214.750748,663.489197 223.830505,671.002991 229.744797,672.638672 
	C219.876907,663.436523 220.238174,660.563354 231.906143,655.113708 
	C234.114334,654.082336 236.984100,653.383057 236.694519,650.189148 
	C236.391846,646.851196 233.318237,646.458008 230.829346,645.698853 
	C229.746582,645.368713 228.535187,645.460205 226.539062,645.363342 
M297.730286,675.989441 
	C302.544678,675.790649 307.558044,676.584656 312.334106,673.205078 
	C307.814453,668.320312 303.359619,664.141052 297.794983,661.401489 
	C295.213745,663.777283 294.000092,666.346558 292.751465,668.838318 
	C290.150696,674.028381 290.916565,675.271118 297.730286,675.989441 
M283.295532,668.682922 
	C278.520386,676.143799 273.745209,683.604614 268.769135,691.379395 
	C276.024048,690.354553 291.111267,667.261658 291.974854,655.757507 
	C286.733826,658.765991 286.391388,664.281311 283.295532,668.682922 
M344.873505,435.173401 
	C344.172577,431.017853 341.957306,432.298126 340.117920,434.074768 
	C337.080261,437.008728 337.042023,440.908691 337.459869,444.776001 
	C337.618958,446.248230 338.069031,447.948120 339.786804,448.239624 
	C341.628418,448.552155 342.910187,447.270996 343.734467,445.753204 
	C345.403534,442.679779 344.895355,439.298431 344.873505,435.173401 
M235.182602,559.554565 
	C238.527405,558.927795 236.569626,556.828003 236.026840,555.602234 
	C234.923203,553.109863 232.695328,551.508301 230.380737,550.169739 
	C224.219528,546.606689 217.524918,544.784241 210.440201,544.225830 
	C215.042984,545.650513 219.430984,547.451721 223.260635,550.424438 
	C227.056244,553.370728 230.866119,556.298645 235.182602,559.554565 
z"/>
<path fill="#000000" opacity="1.000000" stroke="none" 
	d="
M377.818176,589.529419 
	C387.346527,587.133545 395.997406,588.519470 404.339233,593.153931 
	C405.271637,591.724487 406.050568,590.530334 406.997528,589.078552 
	C411.437531,591.202148 411.964813,595.174866 412.174438,599.067505 
	C412.362854,602.566406 411.651337,605.919495 408.121552,607.742371 
	C407.540894,607.291748 407.114746,607.132080 407.076599,606.906738 
	C405.617554,598.283997 399.613251,593.876282 388.643921,593.330017 
	C382.707397,593.034424 377.142944,594.643921 371.605804,596.464233 
	C367.193451,597.914856 362.845734,599.638306 358.344635,600.723633 
	C352.501434,602.132690 348.806488,599.437683 347.266907,593.226624 
	C348.906464,592.192566 350.212006,593.342651 351.330841,594.123352 
	C356.024902,597.398743 360.572418,596.947571 365.332794,594.226257 
	C369.093781,592.076294 373.228882,590.748413 377.818176,589.529419 
z"/>
<path fill="#000000" opacity="1.000000" stroke="none" 
	d="
M420.375916,611.151978 
	C420.027100,604.292297 414.555176,599.785339 413.164032,593.733459 
	C416.153870,591.924866 417.847260,593.414368 419.106415,595.158997 
	C422.550262,599.930420 424.871338,605.216492 425.228485,611.173157 
	C425.470215,615.205322 424.037506,618.619873 419.875183,619.616211 
	C415.835693,620.583191 412.626434,618.779846 410.420990,615.217285 
	C412.161865,612.794861 413.911865,614.306335 415.427704,614.860962 
	C418.768860,616.083374 420.618103,615.412109 420.375916,611.151978 
z"/>
</svg>